PathFileType	4	(X/Y/Z)	G:\Shared drives\HPL_Drive\Nord Sprinting Study\Kristen_Nord_test\Trimmed_Nord000002.trc
DataRate	CameraRate	NumFrames	NumMarkers	Units	OrigDataRate	OrigDataStartFrame	OrigNumFrames
200.00	200.00	      4	52	mm	200.00	1086	      2170
Frame#	Time	C7			R_Shoulder			L_Shoulder			Sternum			R_humerus			R_elbow_med			R_elbow_lat			R_forearm			R_wrist_radius			R_wrist_ulna			L_humerus			L_elbow_med			L_elbow_lat			L_forearm			L_wrist_radius			L_wrist_ulna			r.ASIS			r.PSIS			r_IC			L.ASIS			L.PSIS			l_IC			r_thigh1			r_thigh2			r_thigh3			r_thigh4			r_thigh5			r_knee			r_mknee			r_shank_antsup			r_sh2			r_sh3			r_sh4			r_ankle			r_mankle			r_calc			r_5meta			r_toe			L_thigh1			L_thigh2			L_thigh3			L_thigh4			L_knee			L_mknee			L_shank_antsup			L_sh2			L_sh3			L_ankle			L_mankle			L_calc			L_5meta			L_toe			
		X1	Y1	Z1	X2	Y2	Z2	X3	Y3	Z3	X4	Y4	Z4	X5	Y5	Z5	X6	Y6	Z6	X7	Y7	Z7	X8	Y8	Z8	X9	Y9	Z9	X10	Y10	Z10	X11	Y11	Z11	X12	Y12	Z12	X13	Y13	Z13	X14	Y14	Z14	X15	Y15	Z15	X16	Y16	Z16	X17	Y17	Z17	X18	Y18	Z18	X19	Y19	Z19	X20	Y20	Z20	X21	Y21	Z21	X22	Y22	Z22	X23	Y23	Z23	X24	Y24	Z24	X25	Y25	Z25	X26	Y26	Z26	X27	Y27	Z27	X28	Y28	Z28	X29	Y29	Z29	X30	Y30	Z30	X31	Y31	Z31	X32	Y32	Z32	X33	Y33	Z33	X34	Y34	Z34	X35	Y35	Z35	X36	Y36	Z36	X37	Y37	Z37	X38	Y38	Z38	X39	Y39	Z39	X40	Y40	Z40	X41	Y41	Z41	X42	Y42	Z42	X43	Y43	Z43	X44	Y44	Z44	X45	Y45	Z45	X46	Y46	Z46	X47	Y47	Z47	X48	Y48	Z48	X49	Y49	Z49	X50	Y50	Z50	X51	Y51	Z51	X52	Y52	Z52	

1086	5.425	1199.54541	623.26062	1235.37610	1322.84766	665.01532	1226.14941	1069.00891	674.31287	1236.21960	1198.04126	740.29950	1158.60840	1496.28430	621.19623	1200.40051	1624.50439	624.65851	1109.78113	1618.29797	569.36743	1166.00073	1623.35352	652.08801	1267.12329	1604.02686	753.57739	1326.54553	1642.42566	730.35492	1346.48083	867.35645	644.78510	1215.07556	755.49792	671.79181	1129.85217	750.55505	614.93262	1182.47278	794.70984	706.94476	1291.42749	790.45343	784.79938	1351.52600	845.63019	775.66638	1340.80054	1312.67615	590.55511	711.90387	1261.65247	460.33417	851.09650	1347.14063	565.78302	820.06219	1074.28931	581.21570	707.41260	1147.11121	457.41180	843.04382	1049.14844	563.92664	804.13208	1383.46631	471.36652	496.70468	1383.44250	427.86853	389.30899	1394.19092	372.78958	382.68243	1390.31470	372.80167	540.73761	1373.18640	329.39719	430.09152	1379.87646	349.98627	308.08636	1254.52527	334.70059	319.53644	1397.26990	221.06114	311.48062	1381.49866	101.46297	321.99814	1398.31262	224.87805	388.17249	1383.42395	111.15384	403.93820	1365.62744	-66.09325	377.50684	1288.62988	-53.10382	351.89444	1308.99609	-91.19357	437.09079	1377.36279	-143.76923	281.15494	1343.77783	-116.79521	228.93213	1006.40088	463.47348	492.34250	1009.15399	407.48535	363.28494	1008.94366	355.10867	543.56793	1016.88391	304.78781	416.63333	999.93726	319.38885	325.90707	1126.61743	320.59750	305.92706	984.52747	207.43889	319.92673	999.56287	220.31538	409.62021	1013.97784	99.06810	414.08734	1023.24164	-83.57589	394.30783	1091.10742	-62.40874	336.90289	1078.72095	-87.29636	436.25461	1007.65521	-180.52110	292.09698	1043.65186	-161.14169	233.29779	
1087	5.430	1199.50403	623.69415	1235.19373	1322.83594	665.42657	1225.96082	1069.13708	674.83948	1236.04138	1198.01892	740.68439	1158.42493	1496.19556	621.52740	1200.25244	1624.45007	624.93805	1109.60657	1618.21265	569.65643	1165.85034	1623.25989	652.34821	1267.06433	1603.95020	753.88867	1326.35022	1642.36194	730.65839	1346.29700	867.32422	645.17133	1214.88037	755.45612	672.15228	1129.63281	750.50806	615.29932	1182.31116	794.73767	707.35962	1291.14844	790.41711	785.25946	1351.26025	845.57617	776.15527	1340.53235	1312.58569	590.71667	711.78589	1261.64587	460.61047	851.03461	1347.10754	566.06769	819.89209	1074.25586	581.37091	707.31738	1146.03516	457.75858	842.28186	1049.09753	564.13104	804.02136	1383.39966	471.44278	496.62900	1382.86316	426.26855	389.65622	1394.19604	372.83414	382.64847	1390.30237	372.93027	540.68817	1373.19788	329.46558	430.10455	1379.88635	350.01669	308.07797	1254.51758	334.67331	319.52838	1397.41077	220.95796	311.46240	1381.57788	101.46673	321.98764	1398.33972	224.86954	388.15161	1383.52258	111.17155	403.93951	1365.75598	-66.08588	377.49023	1288.76563	-53.09328	351.83054	1309.16907	-91.21529	437.09973	1377.45520	-143.76796	281.12656	1343.85339	-116.73281	228.95247	1006.32819	463.53122	492.25098	1009.08813	407.48114	363.26190	1008.91675	355.24774	543.54968	1016.86761	304.80475	416.64359	999.95465	319.37488	325.88239	1126.60657	320.67914	305.89917	984.51501	207.38135	319.96680	999.46368	220.08240	409.48492	1014.03699	99.05945	414.08493	1023.34821	-83.58331	394.33896	1091.16846	-62.41962	336.91766	1078.81104	-87.27173	436.22623	1007.81299	-180.58150	292.12854	1043.79871	-161.19199	233.26711	
1088	5.435	1199.44397	624.09393	1235.08179	1322.78857	665.81476	1225.79578	1069.12463	675.24915	1235.85449	1197.97461	741.05823	1158.22180	1496.08862	621.99756	1200.17090	1625.25916	624.96545	1109.28394	1618.12488	569.96777	1165.71606	1623.22693	652.66736	1266.87354	1603.89050	754.20856	1326.14978	1642.31580	730.95978	1346.10986	867.27313	645.60901	1214.69373	755.02930	672.30237	1129.64429	750.48822	615.68152	1182.13318	794.68488	707.80670	1290.89221	790.49585	785.72125	1350.96936	845.51465	776.64288	1340.24670	1312.52856	590.92157	711.61200	1261.65808	460.89871	850.95197	1347.05920	566.33649	819.75714	1074.24548	581.55414	707.20776	1146.21179	457.98672	842.41705	1049.06409	564.34009	803.90411	1383.40454	471.53915	496.58850	1383.15344	426.70862	389.53217	1393.82703	372.69775	382.32968	1390.33606	373.07410	540.69788	1373.21057	329.53659	430.10132	1379.87598	350.02338	308.07233	1254.52637	334.67383	319.55215	1397.39465	220.95926	311.43658	1381.48511	101.81222	322.22781	1398.40979	224.87801	388.16595	1383.60132	111.17000	403.92303	1365.90710	-66.09127	377.47162	1288.86389	-53.13042	351.89365	1309.33423	-91.23765	437.11481	1377.57971	-143.73689	281.10843	1344.04468	-116.72891	228.84962	1006.29437	463.62582	492.24686	1009.08752	407.49524	363.21695	1008.93201	355.25546	543.56689	1016.88373	304.78394	416.63956	999.92975	319.36102	325.92151	1126.61255	320.67410	305.87955	984.55200	207.38977	319.99725	999.62097	220.29073	409.63306	1014.08252	99.08197	414.11313	1023.45367	-83.60761	394.36096	1091.27930	-62.45975	336.90234	1078.88745	-87.27425	436.28473	1007.96393	-180.63144	292.17828	1043.94153	-161.21526	233.28786	
1089	5.440	1199.44568	624.53888	1234.93018	1322.77576	666.20831	1225.62500	1069.10022	675.66663	1235.69739	1197.95337	741.47107	1158.03625	1496.03198	622.33539	1199.98547	1625.21863	625.25110	1109.11292	1618.06116	570.25897	1165.58105	1623.13208	652.95013	1266.71704	1603.81982	754.57233	1325.92566	1642.25525	731.27771	1345.93225	867.25977	646.03717	1214.53467	754.98022	672.66254	1129.46533	750.46576	616.05133	1181.91016	794.60651	708.22235	1290.67505	790.32410	786.16199	1350.75073	845.47156	777.06396	1340.01025	1312.47815	591.12268	711.47406	1261.63269	461.19464	850.87469	1347.17407	566.57904	819.71722	1074.19995	581.68146	707.11060	1146.21777	458.23987	842.34357	1049.03345	564.58698	803.79254	1383.37695	471.72897	496.49704	1383.13293	426.79663	389.48138	1393.84900	372.75433	382.29770	1390.30798	373.22443	540.66815	1373.22571	329.62619	430.11630	1379.89343	350.02634	308.07437	1254.53955	334.66266	319.54688	1397.37915	221.09824	311.47635	1381.60046	101.82832	322.23807	1398.41931	224.91606	388.17123	1383.64856	111.18315	403.93521	1366.05933	-66.06552	377.44525	1288.98828	-53.13418	351.93890	1309.47424	-91.25416	437.09900	1377.73779	-143.70529	281.07053	1343.76685	-116.93946	228.63896	1006.23572	463.69315	492.19870	1009.02991	407.46671	363.23672	1008.98828	355.34534	543.50958	1016.88019	304.82330	416.65369	999.93475	319.33914	325.91797	1126.59692	320.63202	305.86853	984.56219	207.31625	320.06137	999.50299	220.05180	409.50977	1014.44202	99.24255	413.97937	1023.54102	-83.62383	394.33249	1091.36169	-62.44979	336.87521	1079.00256	-87.23536	436.27838	1008.62793	-180.63536	292.33899	1044.09204	-161.26927	233.33914	
